Coordinates
version=1
nRows=17
nColumns=36
inDegrees=yes

Units are S.I. units (second, meters, Newtons, ...)
If the header above contains a line with 'inDegrees', this indicates whether rotational values are in degrees (yes) or radians (no).

endheader
time	pelvis_tilt	pelvis_list	pelvis_rotation	pelvis_tx	pelvis_ty	pelvis_tz	hip_flexion_r	hip_adduction_r	hip_rotation_r	knee_angle_r	knee_angle_r_beta	ankle_angle_r	subtalar_angle_r	mtp_angle_r	hip_flexion_l	hip_adduction_l	hip_rotation_l	knee_angle_l	knee_angle_l_beta	ankle_angle_l	subtalar_angle_l	mtp_angle_l	lumbar_extension	lumbar_bending	lumbar_rotation	arm_flex_r	arm_add_r	arm_rot_r	elbow_flex_r	pro_sup_r	arm_flex_l	arm_add_l	arm_rot_l	elbow_flex_l	pro_sup_l
     45.00000000	      0.32354197	      0.74076370	      5.76310686	      0.44953651	      1.01398676	      0.85804815	    -14.68480055	      2.75001199	     -6.88715374	      2.22682840	      0.03886549	     20.09337508	      2.75551704	     -7.49999987	     33.52762181	      0.53936903	      2.66375416	     16.23611462	      0.28337366	     10.71287476	      1.80507530	     -7.49999987	    -18.77865398	      4.29486215	      0.79728960	     19.55035872	    -14.42181735	      8.01915857	     40.85133836	     75.19156454	     -5.65422381	     -3.78264992	     -4.88724466	     21.98530074	     66.14953216
     45.01666670	      0.20708222	      0.65584767	      5.56000352	      0.45314230	      1.00878769	      0.85539615	    -15.05319898	      2.52989747	     -6.04981541	      3.15029486	      0.05498302	     20.39585576	      2.27571569	     -7.49999987	     34.18991252	      0.65784582	      2.36675471	     19.54496678	      0.34112402	     10.06772375	      1.68849163	     -7.49999987	    -18.63843952	      4.16812983	      1.23704857	     18.98805320	    -14.75396605	      8.13769737	     40.59503157	     74.54004340	     -5.81244534	     -3.51130564	     -5.71891559	     21.73943195	     66.02252424
     45.03333330	      0.14872339	      0.40950111	      5.25488658	      0.45658928	      1.00486411	      0.85361135	    -15.33414316	      2.41047880	     -4.73952378	      4.40774151	      0.07692960	     20.30136231	      1.19918324	     -7.49999987	     34.70500550	      0.52573517	      2.29410568	     22.98074519	      0.40108967	      9.13068601	      1.59440315	     -7.49999987	    -18.58055593	      4.16769187	      1.91140841	     18.11738164	    -15.13788625	      8.03956201	     40.45585292	     73.43625182	     -5.93312947	     -3.37572880	     -6.26834837	     21.70259529	     65.54333181
     45.05000000	     -0.14508208	      0.34272769	      4.95722197	      0.45939164	      1.00114791	      0.85231154	    -15.24167713	      2.04224417	     -3.99899502	      6.11614519	      0.10674687	     20.31644683	      0.88073255	     -7.49999987	     35.24641134	      0.56683026	      2.42440477	     26.14970743	      0.45639849	      8.03089444	      1.21327574	     -7.49999987	    -18.07991142	      3.96272160	      2.39745612	     17.18522834	    -15.28678777	      8.13359842	     39.70293384	     73.54308212	     -5.65274571	     -3.43670237	     -6.76739761	     20.69833482	     66.22379705
     45.06666670	     -0.32916574	      0.28003335	      4.71662118	      0.46210410	      0.99834059	      0.85061820	    -15.18525154	      1.73598158	     -2.96866313	      8.09234867	      0.14123813	     19.66814694	     -0.31960403	     -7.49999987	     35.50391004	      0.59852856	      2.65577061	     29.02093320	      0.50651084	      7.11054195	      0.60118387	     -7.49999987	    -17.73802150	      3.78357106	      2.74749626	     16.18827127	    -15.24296302	      7.96869446	     38.97104471	     73.26040468	     -5.16544250	     -3.77447692	     -7.04536944	     20.21913225	     66.44751726
     45.08333330	     -0.69169148	      0.37430841	      4.64626383	      0.46589979	      0.99690852	      0.84697245	    -14.85288562	      1.26451096	     -2.53393488	     10.39241186	      0.18138180	     18.76232357	     -1.23164878	     -7.49999987	     35.69946092	      0.90690740	      2.93199034	     31.46581290	      0.54918204	      6.48712795	     -0.28218623	     -7.49999987	    -16.95968177	      3.54690201	      3.11067443	     14.88165783	    -15.23431467	      7.67157482	     37.98260401	     73.62697337	     -4.43064713	     -4.26948104	     -6.89036585	     19.54465145	     67.54687123
     45.10000000	     -1.02782100	      0.59156542	      4.57915257	      0.46991789	      0.99762780	      0.84174483	    -14.48702276	      0.69508599	     -1.88182230	     12.78704569	      0.22317605	     17.06684050	     -2.97112728	     -7.49999987	     35.62474296	      1.38631603	      3.14879070	     33.40029933	      0.58294519	      6.23135808	     -1.45826705	     -7.49999987	    -16.20373827	      3.30799891	      3.15431000	     13.70733987	    -15.05081064	      7.20194205	     36.98696125	     73.41508170	     -3.82340928	     -4.64688012	     -7.06419476	     18.97689605	     67.79013273
     45.11666670	     -1.32438470	      1.07495404	      4.82360094	      0.47397875	      1.00072673	      0.83660263	    -14.11855972	     -0.12461542	     -2.17294170	     15.25388429	      0.26623050	     15.46019795	     -3.92699316	     -7.49999987	     35.24270536	      2.34799097	      3.50255217	     34.74669394	      0.60644421	      6.40130120	     -2.64790658	     -7.49999987	    -15.43988167	      2.89223034	      3.19894412	     12.28949737	    -14.90888648	      6.41935570	     35.87341962	     73.08255096	     -3.26220947	     -4.95992609	     -7.06622987	     18.77936774	     68.19314192
     45.13333330	     -1.55599652	      1.53986037	      5.06163410	      0.47834231	      1.00514018	      0.83374151	    -13.68052840	     -0.84104219	     -2.18180111	     17.69285213	      0.30879852	     13.42280602	     -5.38266186	     -7.49999987	     34.59915224	      3.29259208	      3.95190613	     35.67919174	      0.62271937	      6.82562737	     -3.75297487	     -7.49999987	    -14.82073956	      2.46400702	      3.25197449	     10.89120197	    -14.54043064	      5.13145024	     34.67010003	     72.66720148	     -2.57967584	     -5.16335324	     -6.96492516	     18.30045008	     68.52349022
     45.15000000	     -1.51670261	      2.03001976	      5.36335283	      0.48261248	      1.00989378	      0.83201012	    -13.29121097	     -1.49950231	     -2.20367503	     20.21453590	      0.35281021	     11.03771552	     -6.98061427	     -7.49999987	     33.43875374	      4.21622195	      4.50211080	     36.20497487	      0.63189602	      7.34977336	     -4.65149368	     -7.49999987	    -14.57665240	      2.01330615	      3.28645453	      9.46321995	    -14.03834815	      3.36013298	     33.81959309	     72.49917096	     -1.88365296	     -5.34620951	     -6.61705832	     18.12534531	     69.00772235
     45.16666670	     -1.46318096	      2.44548046	      5.51616481	      0.48600174	      1.01383532	      0.82954688	    -12.35436085	     -2.10748469	     -1.92791168	     23.38538112	      0.40815190	      8.48080851	     -8.81866078	     -7.49999987	     32.11184166	      4.90336631	      4.91417774	     36.52203857	      0.63742982	      7.89762479	     -5.30350446	     -7.49999987	    -14.40500236	      1.59338381	      3.25444033	      8.35674239	    -13.41462497	      1.99175534	     32.64655817	     72.11640678	     -1.26532351	     -5.46141130	     -6.66618250	     18.25869667	     69.02498546
     45.18333330	     -1.25733616	      2.95358881	      5.66227748	      0.48818287	      1.01777205	      0.82672365	    -10.97350955	     -2.86753048	     -1.69287116	     27.26563599	      0.47587512	      5.60357434	    -10.70142549	     -7.49999987	     30.44594158	      5.58415366	      5.18619490	     36.52321162	      0.63745030	      8.31560408	     -6.00333831	     -7.49999987	    -14.40788484	      1.08932606	      3.02998138	      7.27817463	    -12.97625030	      1.53594425	     31.61858025	     72.05093469	     -0.68260529	     -5.66487036	     -6.63389012	     18.81910289	     69.10206684
     45.20000000	     -1.11275885	      3.18946646	      5.63139740	      0.48887057	      1.02107092	      0.82550385	     -8.80116740	     -3.39216293	     -1.11421764	     31.84750962	      0.55584390	      2.11004834	    -13.04361404	     -7.49999987	     28.81798911	      5.78276488	      5.16093661	     36.27081321	      0.63304511	      8.76043083	     -6.49645495	     -7.49999987	    -14.35261986	      0.84820028	      2.96952540	      6.37296967	    -12.37476861	      0.20818104	     29.70932951	     71.95883633	     -0.04553566	     -5.90754165	     -6.43899321	     19.63168336	     69.40844337
     45.21666670	     -0.89906029	      3.57599853	      5.41093828	      0.48865381	      1.02399021	      0.82583054	     -6.11403983	     -4.20179963	     -0.70493411	     36.97044031	      0.64525591	     -1.07443804	    -14.78576937	     -7.49999987	     26.99131141	      5.93990297	      4.74571643	     35.52559849	      0.62003866	      8.97167878	     -6.92753684	     -7.49999987	    -14.50310211	      0.40116277	      2.80484642	      5.39699463	    -11.88453051	     -0.24064997	     28.27416596	     71.98278596	      0.65391484	     -6.26994997	     -6.27131804	     20.45529024	     69.60359179
     45.23333330	     -0.83612478	      3.65743020	      4.96504299	      0.48815283	      1.02724471	      0.82644513	     -2.70388264	     -4.75365712	     -0.21315781	     42.37393064	      0.73956461	     -3.92226798	    -16.38724834	     -7.49999987	     25.40265626	      5.64832363	      4.07579538	     34.63969507	      0.60457673	      9.23877456	     -7.05169123	     -7.49999987	    -14.53444429	      0.24199283	      2.72187039	      4.86466519	    -11.32523994	     -0.92638855	     26.18524866	     71.57803358	      1.35631836	     -6.65667182	     -5.76695691	     21.32466825	     69.60419815
     45.25000000	     -0.71126660	      3.77624118	      4.27801225	      0.48826268	      1.03124229	      0.82647019	      0.90011241	     -5.37414288	      0.23874250	     47.57891461	      0.83040871	     -5.75887925	    -17.42805762	     -7.49999987	     23.70819049	      5.30179035	      3.16132728	     33.52856385	      0.58518383	      9.40007356	     -7.14160930	     -7.49999987	    -14.82972052	      0.03017595	      2.69944172	      4.61295799	    -10.91465766	     -1.06984850	     24.51056059	     71.49214139	      2.26532738	     -7.09202703	     -5.04732833	     21.99605174	     69.72139159
     45.26666670	     -0.22861351	      3.87779193	      3.65496422	      0.48905622	      1.03514497	      0.82567880	      3.85989541	     -5.87548539	      0.50275480	     51.70539459	      0.90242938	     -6.21367337	    -17.81171705	     -7.49999987	     21.57387919	      4.97445509	      2.36070087	     32.29620038	      0.56367503	      9.46707690	     -7.28447665	     -7.49999987	    -15.49282381	     -0.15008888	      2.45526337	      4.43649779	    -10.59718398	     -1.11056528	     23.28848153	     71.39687150	      3.22035391	     -7.58605615	     -4.55843198	     22.70112850	     69.75515256
